<svg xmlns="http://www.w3.org/2000/svg" viewBox="0 0 105.5 98.7"><style type="text/css">
	.st0{fill:#A6A8AB;}
</style><path class="st0" d="M85.3 29.1C83 20.4 75 14 65.7 14c-1.3 0-2.7 0.1-4 0.4C58.2 5.8 49.8 0 40.3 0 28.1 0 18 9.6 17.3 21.6 7.1 24.8 0 34.3 0 45.2c0 13.6 11.1 24.7 24.7 24.7h8.6c1.7 0 3.1-1.4 3.1-3.1s-1.4-3.1-3.1-3.1h-8.6c-10.2 0-18.5-8.3-18.5-18.5 0-8.8 6.2-16.4 14.9-18.1 1.5-0.3 2.5-1.6 2.5-3.2 0-0.1 0-0.3 0-0.4 0-0.1 0-0.3 0-0.4 0-9.3 7.6-16.9 16.9-16.9 7.8 0 14.5 5.3 16.4 12.8 0.2 0.8 0.8 1.6 1.5 2 0.8 0.4 1.7 0.5 2.5 0.2 1.6-0.6 3.3-0.9 4.9-0.9 7.2 0 13.3 5.4 14.1 12.6 0.1 0.8 0.5 1.6 1.2 2.1 0.6 0.5 1.5 0.7 2.3 0.6 0.7-0.1 1.3-0.1 1.9-0.1 7.8 0 14.2 6.4 14.2 14.2 0 7.8-6.4 14.2-14.2 14.2l-12.9 0c-1.7 0-3.1 1.4-3.1 3.1 0 1.7 1.4 3.1 3.1 3.1l12.9 0c11.2 0 20.3-9.1 20.3-20.3C105.5 38.3 96.4 29.3 85.3 29.1z"/><path class="st0" d="M65.7 78.3l-9.9 9.9V46c0-1.7-1.4-3.1-3.1-3.1 -1.7 0-3.1 1.4-3.1 3.1v42.2l-9.9-9.9c-1.2-1.2-3.1-1.2-4.3 0 -1.2 1.2-1.2 3.1 0 4.3l15.1 15.1c0.1 0.1 0.8 0.9 2.2 0.9 1.3 0 2.1-0.8 2.2-0.9L70 82.7c1.2-1.2 1.2-3.1 0-4.3C68.8 77.1 66.9 77.1 65.7 78.3z"/></svg>
