<svg xmlns="http://www.w3.org/2000/svg" viewBox="0 0 112.2 100.8"><style type="text/css">
	.st0{fill:#A6A8AB;}
</style><path class="st0" d="M112.2 40.4c0-3.4-1.3-6.6-3.7-9L80.7 3.7c-2.4-2.4-5.6-3.7-9-3.7 -3.4 0-6.6 1.3-9 3.7l-59 59c-5 5-5 13 0 18l20 20 13.6 0c0 0 0 0 0 0h2H99h2c0.4 0 0.7-0.3 0.7-0.7v-2 -2.2 -2c0-0.4-0.3-0.7-0.7-0.7h-2H64.7l43.8-43.8C110.8 47 112.2 43.8 112.2 40.4zM26.9 93.2L9.1 75.3c-2-2-2-5.3 0-7.3l28.1-28.1 35.2 34.8L54 93.2H26.9zM104.6 40.4c0 1.4-0.5 2.7-1.5 3.6L77.8 69.4 42.6 34.6 68.1 9.1c1-1 2.3-1.5 3.6-1.5 1.4 0 2.7 0.5 3.6 1.5l27.7 27.7C104.1 37.8 104.6 39.1 104.6 40.4z"/></svg>
