<svg xmlns="http://www.w3.org/2000/svg" viewBox="0 0 98.8 98.7"><style type="text/css">
	.st0{fill:#A6A8AB;}
</style><path class="st0" d="M94.8 4.1C92.2 1.5 88.7 0 84.9 0c-4 0-8 1.7-10.9 4.6L60.2 18.4l-0.8-0.8c-2.6-2.5-7.2-2.5-9.7 0.1l-8.1 8.1c-0.6 0.6-0.9 1.3-0.9 2.1s0.3 1.5 0.9 2.1l2 2 -33 33c-2.7 2.7-5.5 6.9-6.4 9.5l-1.4 4.3L0.1 89.6c-0.3 1 0 2.1 0.8 2.8l5.4 5.4c0.5 0.5 1.3 0.9 2.1 0.9 0.3 0 0.6-0.1 0.9-0.2l12.2-4.1c2.7-0.9 6.8-3.7 9.5-6.4l34.3-34.3 3.3 3.3c0.6 0.6 1.3 0.9 2.1 0.9 0.8 0 1.5-0.3 2.1-0.9L81 49c1.3-1.3 2-3 2-4.8 0-1.8-0.7-3.5-2-4.8l-0.6-0.6L94.1 25C100 19.1 100.3 9.7 94.8 4.1zM61.2 49.6L26.9 83.9c-2.3 2.3-5.6 4.4-7.2 5L9.2 92.4l-3-3 2.2-9 1.4-4.1c0.5-1.6 2.7-5 5-7.2l33-33L61.2 49.6zM73.3 38.7c0 0.8 0.3 1.5 0.9 2.1l2.7 2.7c0.2 0.2 0.3 0.5 0.3 0.6s0 0.4-0.3 0.6l-6.1 6.1 -23-23 6.1-6.1c0.2-0.2 0.5-0.3 0.7-0.3 0.2 0 0.5 0 0.8 0.3l2.9 2.7c1.2 1.1 3 1.1 4.1-0.1L78.2 8.7C79.9 7 82.4 6 85 6c2.2 0 4.2 0.8 5.6 2.2 3.3 3.3 3 9-0.6 12.6L74.2 36.7C73.6 37.2 73.3 38 73.3 38.7z"/></svg>
