<svg class="modal-icon" xmlns="http://www.w3.org/2000/svg" viewBox="0 0 106.4 89.2">
	<path class="svg-gray" d="M106.4 44.6c0-3.3-1.3-6.4-3.5-8.7V21.2c2.3-2.3 3.5-5.5 3.5-8.7 0-3.5-1.4-6.6-3.7-8.9C100.5 1.4 97.3 0 93.9 0c-3.3 0-6.4 1.3-8.7 3.5H61.9C59.6 1.3 56.5 0 53.2 0c-3.3 0-6.4 1.3-8.7 3.5H21.2C18.9 1.3 15.8 0 12.5 0 9.1 0 5.9 1.4 3.7 3.7 1.4 5.9 0 9.1 0 12.5c0 3.2 1.3 6.4 3.5 8.7v14.7C1.3 38.2 0 41.4 0 44.6c0 3.2 1.3 6.4 3.5 8.7V68C1.3 70.3 0 73.4 0 76.7c0 3.5 1.4 6.6 3.7 8.9 2.3 2.3 5.4 3.7 8.9 3.7 3.3 0 6.4-1.3 8.7-3.5h23.3c2.3 2.3 5.4 3.5 8.7 3.5 3.3 0 6.4-1.3 8.7-3.5h23.3c2.3 2.3 5.4 3.5 8.7 3.5 3.4 0 6.4-1.4 8.7-3.6 2.4-2.2 3.8-5.7 3.8-9 0-3.3-1.3-6.4-3.5-8.7V53.3C105.1 51 106.4 47.9 106.4 44.6zM99.7 38.3c1.8 1.6 2.7 3.9 2.7 6.3 0 2.5-1 4.8-2.9 6.4 -0.5 0.4-0.6 1-0.6 1.6v16.2c0 0.6 0.3 1.2 0.8 1.6 1.8 1.6 2.7 3.9 2.7 6.3 0 2.5-0.9 4.4-2.6 6.2 -1.5 1.5-3.7 2.4-6 2.4 -2.5 0-4.8-1-6.4-2.9 -0.4-0.4-0.9-0.7-1.5-0.7H61.1c-0.6 0-1.2 0.3-1.6 0.8 -1.5 1.8-4 2.7-6.3 2.7 -2.5 0-4.8-1-6.4-2.9 -0.4-0.4-0.9-0.7-1.5-0.7H20.4c-0.6 0-1.2 0.3-1.6 0.8 -1.6 1.8-3.9 2.7-6.3 2.7 -2.4 0-4.5-1-6.1-2.5 -1.6-1.6-2.5-3.7-2.5-6.1 0-2.5 1-4.8 2.9-6.4 0.4-0.4 0.7-0.9 0.7-1.5V52.5c0-0.6-0.3-1.2-0.8-1.6 -1.8-1.5-2.7-4-2.7-6.3 0-2.5 1-4.8 2.9-6.4 0.4-0.4 0.7-0.9 0.7-1.5l0-16.3c0-0.6-0.3-1.2-0.8-1.6 -1.8-1.6-2.7-3.9-2.7-6.3 0-2.4 1-4.5 2.5-6.1 1.6-1.6 3.7-2.5 6.1-2.5 2.5 0 4.8 1 6.4 2.9 0.4 0.4 0.9 0.7 1.5 0.7l24.9 0c0.6 0 1.2-0.3 1.6-0.8 1.6-1.8 3.9-2.7 6.3-2.7 2.5 0 4.8 1 6.4 2.9 0.4 0.5 1 0.6 1.6 0.6l24.7 0c0.6 0 1.2-0.3 1.6-0.8 1.6-1.8 3.9-2.7 6.3-2.7 2.4 0 4.5 1 6.1 2.5 1.6 1.6 2.5 3.7 2.5 6.1 0 2.5-1 4.8-2.9 6.4 -0.5 0.4-0.6 1-0.6 1.6l0 16.2C98.9 37.4 99.3 37.9 99.7 38.3z M91.7 12H14.8c-1.6 0-2.8 1.2-2.8 2.8v59.7c0 1.6 1.2 2.8 2.8 2.8h76.9c1.6 0 2.8-1.2 2.8-2.8V14.8C94.4 13.1 93.3 12 91.7 12zM18.7 73.3l19.1-19.1 5.7 5.7L30.1 73.3H18.7zM35.7 73.3l26-26 12.6 12.6L60.9 73.3H35.7zM66.5 73.3l10.6-10.6 10.6 10.6H66.5zM90.5 70.5L63.1 43.1c-0.8-0.8-2-0.8-2.8 0l-14 14L39.2 50c-0.8-0.8-2-0.8-2.8 0L15.9 70.5V15.9h74.6V70.5z"/>
	<path class="svg-accent" d="M15.9 15.9v54.6L36.4 50c0.8-0.8 2-0.8 2.8 0l7.1 7.1 14-14c0.8-0.8 2-0.8 2.8 0l27.4 27.4V15.9H15.9zM44.2 38.6c-3.5 0-6.4-2.9-6.4-6.4s2.9-6.4 6.4-6.4 6.4 2.9 6.4 6.4S47.8 38.6 44.2 38.6z"/>
</svg>
