<svg xmlns="http://www.w3.org/2000/svg" viewBox="0 0 99.5 98.7"><style type="text/css">  
	.st0{fill:#A6A8AB;}
  </style><path class="pencil-icon" d="M97.5 16.3L83.2 2.1C81.8 0.7 80 0 78.2 0c-1.8 0-3.6 0.7-5 2.1l-4.5 4.4 0 0L15.1 60.2c-0.3 0.3-0.5 0.6-0.7 1L0.2 94.4c-0.5 1.1-0.2 2.5 0.6 3.4 0.6 0.6 1.4 0.9 2.2 0.9 0.4 0 0.7-0.1 1.1-0.2l32.9-12.6c0.4-0.2 0.8-0.4 1.1-0.7l54.4-54 0 0 4.8-4.9C100.2 23.6 100.2 19.1 97.5 16.3zM78.2 6.2c0.2 0 0.4 0 0.6 0.3l14.3 14.3c0.2 0.2 0.3 0.5 0.3 0.6 0 0.2 0 0.4-0.3 0.6l-2.7 2.7 -3.6 3.6L71.2 12.8l3.5-3.5 0 0 2.9-2.9C77.8 6.2 78 6.2 78.2 6.2zM15.7 87.4l-4.1-4.1 7.5-17.5 14.6 14.6L15.7 87.4zM32.8 70.8l-4.4-4.4L23 61l43.8-43.9 5.8 5.8 -35 35.3c-1 1-1 2.7 0 3.7 0.5 0.5 1.2 0.8 1.9 0.8 0.7 0 1.4-0.3 1.9-0.8l35-35.3 5.9 5.9L38.3 76.3 32.8 70.8z"/></svg>
