<svg xmlns="http://www.w3.org/2000/svg" viewBox="0 0 114.5 89.2">
	<path class="svg-gray" d="M57.3 10.9c1.1 0 2-0.9 2-2l0-5.5c0-1.1-0.9-2-2-2 -1.1 0-2 0.9-2 2l0 5.5C55.3 10.1 56.2 10.9 57.3 10.9z"/><path class="svg-gray" d="M39.7 12.9c0.4 1 1.6 1.5 2.6 1.1 1-0.4 1.5-1.6 1.1-2.6L39.2 1.3c-0.4-1-1.6-1.5-2.6-1.1 -1 0.4-1.5 1.6-1.1 2.6L39.7 12.9z"/><ellipse transform="matrix(0.7069 -0.7074 0.7074 0.7069 -40.6864 39.0269)" class="svg-gray" cx="26.7" cy="68.6" rx="2" ry="2"/><ellipse transform="matrix(0.7071 -0.7071 0.7071 0.7071 -38.15 32.9049)" class="svg-gray" cx="20.6" cy="62.5" rx="2" ry="2"/><path class="svg-gray" d="M26.7 22.5c0.8 0.8 2 0.8 2.8 0 0.8-0.8 0.8-2 0-2.8l-3.9-3.9c-0.8-0.8-2-0.8-2.8 0 -0.8 0.8-0.8 2 0 2.8L26.7 22.5z"/><path class="svg-gray" d="M114.4 86.5l-6.7-24.9c-0.1-0.4-0.3-0.6-0.5-0.9L77.1 30.7c-0.8-0.8-2.1-0.9-2.9-0.1l-6.1 6.1c-0.4 0.4-0.6 0.9-0.6 1.4l0 10.2 -8.3 0V38c0-1.1-0.9-2-2-2l-11.4 0 -5.5-5.5c-0.8-0.8-2-0.8-2.8 0L2.2 66c-2.8 2.8-2.7 7.3 0 10l11 11c2.8 2.8 7.3 2.8 10 0L57.3 53l28.7 28.7c0.3 0.3 0.7 0.6 1.1 0.7l24.7 6.6C113.5 89.5 114.8 88 114.4 86.5zM45.9 40l6.6 0L31.6 60.9l-3.3-3.3L45.9 40zM39 34.7l3.3 3.3L25.5 54.8l-3.3-3.3L39 34.7zM20.5 84.3c-1.2 1.2-3.2 1.2-4.5 0l-11-11c-1.2-1.2-1.2-3.2 0-4.5l4.7-4.7 15.5 15.5L20.5 84.3zM28 76.8L12.5 61.3l7-7 15.5 15.5L28 76.8zM55.3 49.4L37.7 67l-3.3-3.3 20.9-20.9V49.4zM75.6 34.7l28.5 28.5 0.5 2 -5.2 0L72.3 38 75.6 34.7zM88.6 78.7L62.1 52.2l6.6 0 21.9 21.9 0 5.1L88.6 78.7zM71.5 49.4l0-6.6 26 26 0 3.3h-3.4L71.5 49.4zM102.7 82.5l-8.1-2.2 0-4.3 4.8 0c1.1 0 2-0.9 2-2l0-4.8 4.3 0 2.2 8.1L102.7 82.5z"/><path class="svg-gray" d="M72.3 13.9c1 0.4 2.2-0.1 2.6-1.1l4.2-10.1c0.4-1-0.1-2.2-1.1-2.6 -1-0.4-2.2 0.1-2.6 1.1l-4.2 10.1C70.9 12.4 71.3 13.5 72.3 13.9z"/><path class="svg-gray" d="M87.9 22.5l3.9-3.9c0.8-0.8 0.8-2 0-2.8 -0.8-0.8-2-0.8-2.8 0l-3.9 3.9c-0.8 0.8-0.8 2 0 2.8C85.9 23.2 87.1 23.2 87.9 22.5z"/><path class="svg-accent" d="M25.2 79.6L9.7 64.1l-4.7 4.7c-1.2 1.2-1.2 3.2 0 4.5l11 11c1.2 1.2 3.2 1.2 4.5 0L25.2 79.6 25.2 79.6zM99.5 65.2L72.3 38l3.3-3.3 28.5 28.5 0.5 2L99.5 65.2 99.5 65.2zM94.1 72.1L71.5 49.4l0-6.6 26 26 0 3.3H94.1L94.1 72.1zM68.7 52.2l21.9 21.9 0 5.1 -2.1-0.6L62.1 52.2 68.7 52.2 68.7 52.2zM42.3 38L39 34.7 22.2 51.5l3.3 3.3L42.3 38 42.3 38zM52.6 40l-6.6 0L28.3 57.6l3.3 3.3L52.6 40 52.6 40zM37.7 67l17.6-17.6v-6.6L34.4 63.7 37.7 67 37.7 67z"/>
</svg>
