<svg version="1.1" xmlns="http://www.w3.org/2000/svg" viewBox="0 0 200 88.16" xml:space="preserve"><style type="text/css">.st0{fill:none;stroke:#00E2D4;stroke-width:1.8373;}.st1{fill:#21F3E9;}</style><path class="st0" d="M162.41,38.38c0,0.26-0.16,0.39-0.49,0.39h-16.54c-0.39,0-0.55-0.19-0.49-0.58c0.06-0.39,0.26-1.2,0.58-2.43
	c0.52-1.81,1.47-3.23,2.87-4.23c1.39-1.01,3.13-1.51,5.21-1.51c2.2,0,4.02,0.55,5.45,1.65c1.43,1.1,2.43,2.59,3.02,4.48
	C162.28,36.92,162.41,37.67,162.41,38.38z M32.44,43.93c0,4.22-0.78,7.62-2.34,10.21c-1.56,2.47-3.83,3.7-6.81,3.7
	c-2.72,0-4.9-1.27-6.52-3.79c-1.36-2.46-2.04-5.8-2.04-10.02c0-4.02,0.65-7.23,1.95-9.63c1.56-2.79,3.76-4.18,6.62-4.18
	c3.18,0,5.54,1.39,7.1,4.18C31.76,36.93,32.44,40.1,32.44,43.93z M44.99,56.28c1.23-3.24,1.85-7.26,1.85-12.06
	c0-4.67-0.55-8.56-1.65-11.67c-1.3-4.28-3.65-7.73-7.05-10.36c-3.41-2.63-7.31-3.94-11.72-3.94c-4.73,0-8.43,1.75-11.09,5.25
	c-0.13,0.19-0.28,0.28-0.44,0.24c-0.16-0.03-0.24-0.18-0.24-0.44v-2.63c0-1.1-0.55-1.65-1.65-1.65H2.57c-1.1,0-1.65,0.55-1.65,1.65
	v64.79c0,1.1,0.55,1.65,1.65,1.65h10.41c1.1,0,1.65-0.55,1.65-1.65V65.43c0-0.26,0.08-0.42,0.24-0.49c0.16-0.06,0.31,0,0.44,0.2
	c2.59,3.18,6.29,4.77,11.09,4.77c4.41,0,8.25-1.23,11.53-3.7C41.21,63.74,43.56,60.44,44.99,56.28z M69.31,67.37v-46.7
	c0-1.1-0.55-1.65-1.65-1.65H57.24c-1.1,0-1.65,0.55-1.65,1.65v46.7c0,1.1,0.55,1.65,1.65,1.65h10.41
	C68.76,69.03,69.31,68.48,69.31,67.37z M124.56,66.99L91.88,20.1c-0.52-0.71-1.17-1.07-1.95-1.07H78.84c-0.45,0-0.81,0.1-1.07,0.29
	c-0.26,0.19-0.39,0.45-0.39,0.78c0,0.33,0.13,0.65,0.39,0.97l15.18,22.57c0.19,0.26,0.19,0.52,0,0.78L77.77,66.99
	c-0.26,0.33-0.39,0.65-0.39,0.97c0,0.33,0.13,0.58,0.39,0.78c0.26,0.2,0.62,0.29,1.07,0.29h11.97c0.78,0,1.43-0.36,1.94-1.07
	l8.46-12.94c0.13-0.19,0.28-0.29,0.44-0.29c0.16,0,0.28,0.1,0.34,0.29l8.46,12.94c0.52,0.72,1.17,1.07,1.94,1.07h11.09
	c0.45,0,0.81-0.1,1.07-0.29c0.26-0.19,0.39-0.45,0.39-0.78C124.95,67.63,124.82,67.31,124.56,66.99z M176.71,46.75
	c-0.13-2.59-0.33-4.96-0.58-7.1c-1.1-6.81-3.52-12.09-7.25-15.86c-3.73-3.76-8.77-5.64-15.13-5.64c-5.38,0-10.04,1.46-13.96,4.38
	c-3.92,2.92-6.53,6.78-7.83,11.58c-0.71,2.59-1.07,5.77-1.07,9.53c0,3.18,0.39,6.19,1.17,9.05c1.36,5.32,4,9.5,7.93,12.55
	c3.92,3.05,8.87,4.57,14.84,4.57c3.96,0,7.6-0.76,10.94-2.29c3.34-1.52,6.08-3.61,8.22-6.28c0.26-0.32,0.39-0.71,0.39-1.17
	c0-0.39-0.19-0.78-0.58-1.17l-5.54-5.35c-0.33-0.32-0.68-0.49-1.07-0.49c-0.46,0-0.88,0.23-1.27,0.68
	c-2.27,2.79-5.55,4.28-9.83,4.48c-2.72,0-5.04-0.53-6.96-1.61c-1.91-1.07-3.19-2.61-3.84-4.62c-0.26-0.65-0.49-1.65-0.68-3.02
	c0-0.39,0.19-0.58,0.58-0.58h29.87C176.15,48.4,176.71,47.85,176.71,46.75z M199.08,67.37V2.58c0-1.1-0.55-1.65-1.65-1.65h-10.41
	c-1.1,0-1.65,0.55-1.65,1.65v64.79c0,1.1,0.55,1.65,1.65,1.65h10.41C198.53,69.03,199.08,68.48,199.08,67.37z"/>
<path class="st0" d="M112.14,19.06c-0.69,0-1.24,0.55-1.24,1.24v11.7c0,0.68,0.56,1.24,1.24,1.24h11.7c0.69,0,1.24-0.57,1.24-1.24
	V20.3c0-0.69-0.56-1.24-1.24-1.24H112.14z"/>
<path class="st1" d="M165.25,80.7c0.4,0.48,0.6,1.14,0.6,1.98v5.17c0,0.05-0.02,0.1-0.05,0.13c-0.04,0.04-0.08,0.05-0.13,0.05h-1.41
	c-0.05,0-0.1-0.02-0.13-0.05c-0.04-0.04-0.05-0.08-0.05-0.13v-4.92c0-0.43-0.1-0.77-0.31-1.02c-0.21-0.25-0.48-0.37-0.82-0.37
	c-0.36,0-0.65,0.12-0.86,0.37c-0.21,0.25-0.32,0.58-0.32,1.01v4.93c0,0.05-0.02,0.1-0.05,0.13c-0.04,0.04-0.08,0.05-0.13,0.05h-1.43
	c-0.05,0-0.1-0.02-0.13-0.05c-0.04-0.04-0.05-0.08-0.05-0.13v-4.92c0-0.43-0.1-0.77-0.31-1.02c-0.21-0.25-0.48-0.37-0.82-0.37
	c-0.36,0-0.65,0.12-0.86,0.37c-0.21,0.25-0.32,0.58-0.32,1.01v4.93c0,0.05-0.02,0.1-0.05,0.13c-0.04,0.04-0.08,0.05-0.13,0.05h-1.41
	c-0.05,0-0.1-0.02-0.13-0.05c-0.04-0.04-0.05-0.08-0.05-0.13V80.3c0-0.05,0.02-0.09,0.05-0.13c0.04-0.04,0.08-0.05,0.13-0.05h1.41
	c0.05,0,0.1,0.02,0.13,0.05c0.04,0.04,0.05,0.08,0.05,0.13v0.39c0,0.03,0.01,0.05,0.03,0.05s0.04,0,0.06-0.02
	c0.42-0.49,1-0.73,1.72-0.73c0.46,0,0.85,0.1,1.18,0.29c0.33,0.19,0.59,0.46,0.77,0.81c0.02,0.02,0.04,0.03,0.06,0.03
	c0.02,0,0.04-0.02,0.05-0.06c0.24-0.37,0.54-0.64,0.89-0.81c0.36-0.17,0.74-0.26,1.14-0.26C164.29,79.99,164.86,80.23,165.25,80.7z
	 M148.14,80.11h-1.26c-0.05,0-0.08-0.03-0.08-0.08v-1.77c0-0.05-0.02-0.1-0.05-0.13c-0.04-0.04-0.08-0.05-0.13-0.05h-1.36
	c-0.05,0-0.1,0.02-0.13,0.05c-0.04,0.04-0.05,0.08-0.05,0.13v1.77c0,0.05-0.03,0.08-0.08,0.08h-0.71c-0.05,0-0.1,0.02-0.13,0.05
	c-0.04,0.04-0.05,0.08-0.05,0.13v0.99c0,0.05,0.02,0.1,0.05,0.13c0.04,0.04,0.08,0.05,0.13,0.05h0.71c0.05,0,0.08,0.03,0.08,0.08
	v4.55c0,0.74,0.19,1.25,0.57,1.52c0.38,0.27,0.96,0.4,1.72,0.4h0.65c0.12-0.02,0.19-0.09,0.19-0.2v-1.16c0-0.05-0.02-0.1-0.05-0.13
	c-0.04-0.04-0.08-0.05-0.13-0.05h-0.28c-0.32,0-0.56-0.08-0.71-0.23c-0.15-0.16-0.22-0.42-0.22-0.81v-3.88
	c0-0.05,0.03-0.08,0.08-0.08h1.26c0.05,0,0.1-0.02,0.13-0.05c0.04-0.04,0.05-0.08,0.05-0.13V80.3c0-0.05-0.02-0.09-0.05-0.13
	C148.23,80.13,148.19,80.11,148.14,80.11z M141.08,80.02c-0.69,0-1.23,0.34-1.6,1.02c-0.02,0.03-0.04,0.04-0.05,0.04
	c-0.02,0-0.02-0.03-0.02-0.07V80.3c0-0.05-0.02-0.09-0.06-0.13c-0.04-0.04-0.08-0.05-0.13-0.05h-1.43c-0.05,0-0.1,0.02-0.13,0.05
	c-0.04,0.04-0.05,0.08-0.05,0.13v7.55c0,0.05,0.02,0.1,0.05,0.13c0.04,0.04,0.08,0.05,0.13,0.05h1.43c0.05,0,0.09-0.02,0.13-0.05
	c0.04-0.04,0.06-0.08,0.06-0.13v-4.39c0-0.42,0.12-0.78,0.35-1.06c0.23-0.28,0.53-0.45,0.89-0.49c0.15-0.02,0.24-0.03,0.29-0.03
	c0.19,0,0.36,0.03,0.51,0.08c0.13,0.05,0.21,0.02,0.22-0.11l0.26-1.41c0.02-0.11-0.01-0.19-0.09-0.23
	C141.62,80.08,141.37,80.02,141.08,80.02z M134.14,81.25c0.25,0.39,0.38,0.84,0.38,1.35v5.26c0,0.05-0.02,0.1-0.06,0.13
	c-0.04,0.04-0.08,0.05-0.13,0.05h-1.43c-0.05,0-0.1-0.02-0.13-0.05c-0.04-0.04-0.05-0.08-0.05-0.13v-0.39
	c0-0.03-0.01-0.05-0.03-0.05c-0.02-0.01-0.04,0-0.06,0.02c-0.46,0.49-1.09,0.73-1.91,0.73c-0.68,0-1.26-0.18-1.73-0.55
	s-0.71-0.96-0.71-1.79c0-0.87,0.28-1.52,0.83-1.94s1.32-0.64,2.3-0.64h1.23c0.05,0,0.08-0.03,0.08-0.08v-0.39
	c0-0.38-0.11-0.68-0.32-0.91c-0.21-0.22-0.51-0.33-0.89-0.33c-0.3,0-0.55,0.07-0.74,0.21c-0.19,0.14-0.31,0.33-0.36,0.57
	c-0.01,0.11-0.08,0.17-0.2,0.17l-1.52-0.09c-0.13-0.02-0.19-0.08-0.17-0.17c0.07-0.66,0.38-1.2,0.93-1.61
	c0.55-0.41,1.24-0.62,2.06-0.62c0.59,0,1.11,0.11,1.57,0.33C133.53,80.54,133.88,80.85,134.14,81.25z M132.72,84.63
	c0-0.05-0.03-0.08-0.08-0.08h-1.06c-0.46,0-0.81,0.1-1.08,0.29c-0.26,0.2-0.4,0.48-0.4,0.85c0,0.33,0.1,0.58,0.3,0.75
	c0.2,0.17,0.47,0.26,0.8,0.26c0.4,0,0.75-0.12,1.06-0.35c0.3-0.23,0.45-0.54,0.45-0.92V84.63z M192.5,82.83
	c0.05,0.59,0.08,1.15,0.08,1.69c0,0.12-0.06,0.19-0.19,0.19h-4.17c-0.05,0-0.08,0.03-0.08,0.08c0,0.26,0.02,0.49,0.05,0.7
	c0.05,0.34,0.2,0.62,0.46,0.83c0.25,0.21,0.57,0.32,0.94,0.32c0.31-0.01,0.58-0.09,0.8-0.25c0.22-0.15,0.39-0.36,0.5-0.62
	c0.05-0.11,0.13-0.16,0.23-0.12l1.15,0.29c0.12,0.03,0.17,0.11,0.14,0.23c-0.19,0.62-0.53,1.11-1.03,1.47
	c-0.5,0.36-1.13,0.54-1.89,0.54c-0.79,0-1.43-0.2-1.95-0.6c-0.51-0.4-0.84-0.94-0.99-1.62c-0.15-0.54-0.22-1.18-0.22-1.94
	c0-0.63,0.03-1.13,0.08-1.51c0.09-0.77,0.41-1.38,0.95-1.83c0.54-0.46,1.23-0.68,2.08-0.68c0.94,0,1.67,0.25,2.17,0.74
	C192.12,81.23,192.42,81.93,192.5,82.83z M190.76,83.34c-0.02-0.31-0.04-0.53-0.06-0.67c-0.05-0.35-0.19-0.63-0.4-0.83
	c-0.22-0.2-0.51-0.3-0.87-0.3c-0.33,0-0.61,0.1-0.82,0.29c-0.22,0.2-0.35,0.46-0.4,0.79c-0.04,0.29-0.06,0.53-0.06,0.71
	c0,0.05,0.03,0.08,0.08,0.08h2.47C190.74,83.42,190.76,83.39,190.76,83.34z M199.79,80.21c-0.22-0.12-0.47-0.19-0.76-0.19
	c-0.69,0-1.23,0.34-1.6,1.02c-0.02,0.03-0.04,0.04-0.06,0.04c-0.02,0-0.02-0.03-0.02-0.07V80.3c0-0.05-0.02-0.09-0.05-0.13
	c-0.04-0.04-0.08-0.05-0.13-0.05h-1.43c-0.05,0-0.1,0.02-0.13,0.05c-0.04,0.04-0.05,0.08-0.05,0.13v7.55c0,0.05,0.02,0.1,0.05,0.13
	c0.04,0.04,0.08,0.05,0.13,0.05h1.43c0.05,0,0.1-0.02,0.13-0.05c0.04-0.04,0.05-0.08,0.05-0.13v-4.39c0-0.42,0.12-0.78,0.35-1.06
	c0.23-0.28,0.53-0.45,0.89-0.49c0.15-0.02,0.24-0.03,0.29-0.03c0.19,0,0.36,0.03,0.51,0.08c0.13,0.05,0.21,0.02,0.22-0.11l0.26-1.41
	C199.91,80.32,199.87,80.25,199.79,80.21z M174.48,81.25c0.25,0.39,0.38,0.84,0.38,1.35v5.26c0,0.05-0.02,0.1-0.05,0.13
	c-0.04,0.04-0.08,0.05-0.13,0.05h-1.43c-0.05,0-0.1-0.02-0.13-0.05c-0.04-0.04-0.05-0.08-0.05-0.13v-0.39
	c0-0.03-0.01-0.05-0.03-0.05c-0.02-0.01-0.04,0-0.06,0.02c-0.46,0.49-1.09,0.73-1.91,0.73c-0.68,0-1.26-0.18-1.73-0.55
	s-0.71-0.96-0.71-1.79c0-0.87,0.28-1.52,0.83-1.94c0.55-0.42,1.32-0.64,2.3-0.64h1.23c0.05,0,0.08-0.03,0.08-0.08v-0.39
	c0-0.38-0.11-0.68-0.32-0.91c-0.21-0.22-0.51-0.33-0.89-0.33c-0.3,0-0.55,0.07-0.74,0.21c-0.19,0.14-0.31,0.33-0.37,0.57
	c-0.01,0.11-0.08,0.17-0.2,0.17l-1.52-0.09c-0.13-0.02-0.19-0.08-0.17-0.17c0.07-0.66,0.38-1.2,0.93-1.61
	c0.55-0.41,1.24-0.62,2.06-0.62c0.59,0,1.11,0.11,1.57,0.33C173.88,80.54,174.23,80.85,174.48,81.25z M173.06,84.63
	c0-0.05-0.03-0.08-0.08-0.08h-1.06c-0.46,0-0.81,0.1-1.08,0.29c-0.26,0.2-0.4,0.48-0.4,0.85c0,0.33,0.1,0.58,0.3,0.75
	c0.2,0.17,0.47,0.26,0.8,0.26c0.4,0,0.75-0.12,1.06-0.35c0.3-0.23,0.45-0.54,0.45-0.92V84.63z M182.05,82.86
	c-0.02-0.04-0.02-0.08,0-0.11l1.8-2.4c0.03-0.05,0.05-0.09,0.05-0.12c0-0.07-0.05-0.11-0.15-0.11h-1.57c-0.09,0-0.17,0.04-0.23,0.11
	l-2.09,2.73c-0.02,0.02-0.04,0.03-0.06,0.02c-0.02-0.01-0.03-0.02-0.03-0.05v-5.55c0-0.05-0.02-0.1-0.05-0.13
	c-0.04-0.04-0.08-0.05-0.13-0.05h-1.43c-0.05,0-0.09,0.02-0.13,0.05c-0.04,0.04-0.05,0.08-0.05,0.13v10.49
	c0,0.05,0.02,0.1,0.05,0.13c0.04,0.04,0.08,0.05,0.13,0.05h1.43c0.05,0,0.09-0.02,0.13-0.05c0.04-0.04,0.05-0.08,0.05-0.13v-2.34
	c0-0.02,0.01-0.05,0.03-0.09l0.99-1.26c0.02-0.02,0.04-0.03,0.05-0.03s0.03,0.02,0.04,0.05l1.41,3.71c0.03,0.1,0.1,0.15,0.22,0.15
	h1.49c0.1,0,0.15-0.04,0.15-0.12c0-0.04,0-0.07-0.02-0.09L182.05,82.86z"/>
</svg>
