<svg xmlns="http://www.w3.org/2000/svg" viewBox="0 0 106.6 114.2">
	<polygon class="svg-accent" points="62.6 83.5 24.7 45.7 19.9 50.4 57.8 88.3 62.6 83.5 "/><path class="svg-accent" d="M105.9 40.4c-1-1-2.8-0.7-4 0.5l-0.6 0.6c-1.3 1.3-3 1.6-3.8 0.7 -0.8-0.8-0.5-2.6 0.7-3.8l5.1-5.1c1.3-1.3 1.4-3.2 0.3-4.3 -1.1-1.1-3-1-4.3 0.3L94.5 34c-1.3 1.3-3.1 1.5-4.1 0.5 -1-1-0.8-2.8 0.5-4.1l3.7-3.7c1.3-1.3 1.3-3.3 0.1-4.5 -1.2-1.2-3.2-1.2-4.5 0.1L89 23.5c-1.3 1.3-3.3 1.3-4.6 0l-3.9-3.9c-1.3-1.3-1.4-3.1-0.4-4.1 1-1 1-2.7-0.1-3.8 -1-1-2.9-0.9-4.2 0.4L74 13.9c-1.3 1.3-3.3 1.3-4.6 0l-2-2c-1.3-1.3-1.3-3.3-0.1-4.5 0.1-0.1 2.3-2.4 2.3-2.4 1.3-1.3 1.4-3.2 0.3-4.3 -1.1-1.1-3-1-4.3 0.3L27.9 38.8c0.9-0.8 2.3-0.8 3.2 0.1l38.3 38.3c0.9 0.9 0.9 2.3 0.1 3.2 0 0 36.3-36.3 36.4-36.4C106.8 42.9 106.8 41.3 105.9 40.4zM55.9 27L44.6 38.3c-0.6 0.6-1.3 0.8-2 0.8 -0.7 0-1.4-0.3-2-0.8 -1.1-1.1-1.1-2.9 0-4L51.9 23c1.1-1.1 2.9-1.1 4 0C57 24.1 57 25.9 55.9 27zM82.3 37.8L80 40.1c-1.3 1.3-3.2 1.4-4.3 0.3 -1.1-1.1-1-3 0.3-4.3l2.3-2.3c1.3-1.3 3.2-1.4 4.3-0.3C83.7 34.6 83.6 36.6 82.3 37.8z"/><path class="svg-gray" d="M69.4 77.1L31.1 38.8c-0.9-0.9-2.4-0.9-3.3 0l-10 10c0 0-0.7 0.6-0.7 1.7 0 1 0.7 1.7 0.7 1.7l29.8 29.8h0l8.5 8.5c0.9 0.9 2.4 0.9 3.3 0l4-4 1.7 1.7 -8 8L32.1 81.5c-0.5-0.3-1.2-0.3-1.7 0.2l-3 3 -4.1-4.1c-0.8-0.8-1.9-0.5-2.2 0.6l-1.7 6.3L0.6 106.4c-0.8 0.8-0.8 2.2 0 3l4.1 4.1c0.8 0.8 2.2 0.8 3 0l18.9-18.9 6.3-1.7c1.1-0.3 1.4-1.4 0.6-2.2l-4.1-4.1 2.3-2.3 25.2 14.5c0.5 0.3 1.2 0.2 1.6-0.2L68 89c0.5-0.5 0.5-1.4 0-1.9l-2.7-2.7 4-4C70.3 79.5 70.3 78 69.4 77.1zM6.2 111.2l-3.3-3.3L20 90.7l3.3 3.3L6.2 111.2zM29.9 90.9l-4.8 1.3 -3.3-3.3 1.3-4.8L29.9 90.9zM57.8 88.3L19.9 50.4l4.8-4.8h0l4.8-4.8 37.8 37.8L57.8 88.3z"/><circle class="svg-gray" cx="7.2" cy="106.9" r="1.3"/>
</svg>
